<?xml version="1.0" encoding="UTF-8"?>
<svg version="1.1" xmlns="http://www.w3.org/2000/svg" width="250" height="250">
<path d="M0 0 C1.89510699 -0.08160748 3.79124504 -0.13946459 5.6875 -0.1875 C6.74324219 -0.22230469 7.79898438 -0.25710937 8.88671875 -0.29296875 C13.67780376 0.15788618 16.86900697 2.46061658 20 6 C21.34736973 7.65533995 22.68334336 9.32012773 24 11 C23.67 11.639375 23.34 12.27875 23 12.9375 C21.92728775 14.76794567 21.92728775 14.76794567 22 16 C22.99 16.33 23.98 16.66 25 17 C24.67 18.65 24.34 20.3 24 22 C22.02 22.495 22.02 22.495 20 23 C19.67 22.01 19.34 21.02 19 20 C18.34 21.32 17.68 22.64 17 24 C18.32 24.33 19.64 24.66 21 25 C20.67 26.65 20.34 28.3 20 30 C18.35 30.33 16.7 30.66 15 31 C15 30.01 15 29.02 15 28 C14.34 28 13.68 28 13 28 C12.34 29.65 11.68 31.3 11 33 C11.99 32.67 12.98 32.34 14 32 C14.99 32.66 15.98 33.32 17 34 C15.25 38.875 15.25 38.875 13 40 C12.443125 39.46375 11.88625 38.9275 11.3125 38.375 C9.10387971 36.72951209 9.10387971 36.72951209 6.66015625 37.36328125 C2.54311307 39.89638124 1.20374278 43.54518689 -0.875 47.8125 C-1.91128517 49.86727484 -2.94776248 51.92195279 -3.984375 53.9765625 C-4.59718471 55.20466305 -5.20980228 56.43285949 -5.82226562 57.66113281 C-8.45532148 62.92506123 -11.14321343 68.16082331 -13.828125 73.3984375 C-14.87256826 75.43643711 -15.91700177 77.47444171 -16.96142578 79.51245117 C-17.48351624 80.53116302 -18.00560669 81.54987488 -18.54351807 82.59945679 C-21.09867276 87.58871903 -23.64752832 92.58118962 -26.1953125 97.57421875 C-26.65004944 98.46503143 -27.10478638 99.35584412 -27.57330322 100.27365112 C-27.99528992 101.10075592 -28.41727661 101.92786072 -28.85205078 102.7800293 C-29.22000763 103.50119431 -29.58796448 104.22235931 -29.96707153 104.96537781 C-30.98623966 106.97289542 -31.99534604 108.98518524 -33 111 C-31.91332031 111.81791016 -31.91332031 111.81791016 -30.8046875 112.65234375 C-24.17575315 117.82291255 -15.84531539 124.43008039 -14.69140625 133.3984375 C-14.17607866 145.29782004 -19.07328429 153.13584282 -26.75 161.75 C-27.23380127 162.256521 -27.71760254 162.76304199 -28.21606445 163.28491211 C-32.31006013 167.72754664 -34.11696524 172.00094889 -33.94091797 178.02001953 C-33.71734815 180.09216661 -33.40514957 182.13184151 -33.0625 184.1875 C-30.90769467 199.67199198 -33.11991484 213.39869087 -42.02734375 226.5234375 C-48.07164325 234.11172637 -56.29634915 239.0738987 -65.99023438 240.23925781 C-86.27051093 241.88783615 -105.34906617 233.9330755 -121.125 221.4375 C-129.63410983 213.9855826 -138.35033315 204.69062541 -139.23828125 192.8125 C-139.52860116 177.89922461 -135.18092793 168.31396724 -125.3359375 157.10546875 C-120.13828362 152.03834955 -113.62054959 148.83431864 -107.25830078 145.46264648 C-106.49630371 145.05731689 -105.73430664 144.6519873 -104.94921875 144.234375 C-104.26174561 143.87569336 -103.57427246 143.51701172 -102.8659668 143.14746094 C-98.21629291 140.28818222 -97.17443723 137.15819913 -95.5625 132 C-95.12147408 130.64180352 -94.6800651 129.28373138 -94.23828125 127.92578125 C-93.49516016 125.59643647 -92.78715815 123.26667151 -92.10546875 120.91796875 C-89.38833109 112.24546087 -84.3652875 105.80037311 -76.6875 100.875 C-68.92483799 99.0330124 -61.81227591 99.6574646 -54.1015625 101.5234375 C-52.95252441 101.79849121 -51.80348633 102.07354492 -50.61962891 102.35693359 C-49.75515137 102.56914551 -48.89067383 102.78135742 -48 103 C-47.6690332 102.35788574 -47.33806641 101.71577148 -46.99707031 101.05419922 C-41.08625056 89.60071469 -35.1431759 78.17198142 -28.9375 66.875 C-27.46942338 64.18745678 -26.00273959 61.49915875 -24.53662109 58.81054688 C-23.46544233 56.85131429 -22.389907 54.89445998 -21.31103516 52.93945312 C-19.60756459 49.84328352 -17.92692008 46.73561324 -16.25 43.625 C-15.4609729 42.20743408 -15.4609729 42.20743408 -14.65600586 40.76123047 C-11.67099238 35.16840568 -10.37555669 31.34850702 -11 25 C-12.32 25.33 -13.64 25.66 -15 26 C-15.99 24.02 -15.99 24.02 -17 22 C-15.68 20.68 -14.36 19.36 -13 18 C-12.34 18.33 -11.68 18.66 -11 19 C-11 19.99 -11 20.98 -11 22 C-10.01 22 -9.02 22 -8 22 C-7.67 20.35 -7.34 18.7 -7 17 C-8.65 16.67 -10.3 16.34 -12 16 C-11.67 14.35 -11.34 12.7 -11 11 C-10.01 10.67 -9.02 10.34 -8 10 C-7.01 10.495 -7.01 10.495 -6 11 C-6 11.99 -6 12.98 -6 14 C-5.34 14 -4.68 14 -4 14 C-3.34 12.02 -2.68 10.04 -2 8 C-2.928125 8.2784375 -2.928125 8.2784375 -3.875 8.5625 C-6 9 -6 9 -8 8 C-7.67 6.35 -7.34 4.7 -7 3 C-5.35 2.67 -3.7 2.34 -2 2 C-1.67 2.66 -1.34 3.32 -1 4 C-0.67 2.68 -0.34 1.36 0 0 Z " fill="#F1B352" transform="translate(178,7)"/>
<path d="M0 0 C1.89510699 -0.08160748 3.79124504 -0.13946459 5.6875 -0.1875 C6.74324219 -0.22230469 7.79898438 -0.25710937 8.88671875 -0.29296875 C13.67780376 0.15788618 16.86900697 2.46061658 20 6 C21.34736973 7.65533995 22.68334336 9.32012773 24 11 C23.67 11.639375 23.34 12.27875 23 12.9375 C21.92728775 14.76794567 21.92728775 14.76794567 22 16 C22.99 16.33 23.98 16.66 25 17 C24.67 18.65 24.34 20.3 24 22 C22.02 22.495 22.02 22.495 20 23 C19.67 22.01 19.34 21.02 19 20 C18.34 21.32 17.68 22.64 17 24 C18.32 24.33 19.64 24.66 21 25 C20.67 26.65 20.34 28.3 20 30 C18.35 30.33 16.7 30.66 15 31 C15 30.01 15 29.02 15 28 C14.34 28 13.68 28 13 28 C12.34 29.65 11.68 31.3 11 33 C11.99 32.67 12.98 32.34 14 32 C14.99 32.66 15.98 33.32 17 34 C15.25 38.875 15.25 38.875 13 40 C12.443125 39.46375 11.88625 38.9275 11.3125 38.375 C9.10387971 36.72951209 9.10387971 36.72951209 6.66015625 37.36328125 C2.54311307 39.89638124 1.20374278 43.54518689 -0.875 47.8125 C-1.91128517 49.86727484 -2.94776248 51.92195279 -3.984375 53.9765625 C-4.59718471 55.20466305 -5.20980228 56.43285949 -5.82226562 57.66113281 C-8.45532148 62.92506123 -11.14321343 68.16082331 -13.828125 73.3984375 C-14.87256826 75.43643711 -15.91700177 77.47444171 -16.96142578 79.51245117 C-17.48351624 80.53116302 -18.00560669 81.54987488 -18.54351807 82.59945679 C-21.09867276 87.58871903 -23.64752832 92.58118962 -26.1953125 97.57421875 C-26.65004944 98.46503143 -27.10478638 99.35584412 -27.57330322 100.27365112 C-27.99528992 101.10075592 -28.41727661 101.92786072 -28.85205078 102.7800293 C-29.22000763 103.50119431 -29.58796448 104.22235931 -29.96707153 104.96537781 C-30.98623966 106.97289542 -31.99534604 108.98518524 -33 111 C-31.91332031 111.81791016 -31.91332031 111.81791016 -30.8046875 112.65234375 C-24.17575315 117.82291255 -15.84531539 124.43008039 -14.69140625 133.3984375 C-14.17607866 145.29782004 -19.07328429 153.13584282 -26.75 161.75 C-27.23380127 162.256521 -27.71760254 162.76304199 -28.21606445 163.28491211 C-32.31006013 167.72754664 -34.11696524 172.00094889 -33.94091797 178.02001953 C-33.71734815 180.09216661 -33.40514957 182.13184151 -33.0625 184.1875 C-30.90769467 199.67199198 -33.11991484 213.39869087 -42.02734375 226.5234375 C-48.07164325 234.11172637 -56.29634915 239.0738987 -65.99023438 240.23925781 C-86.27051093 241.88783615 -105.34906617 233.9330755 -121.125 221.4375 C-129.63410983 213.9855826 -138.35033315 204.69062541 -139.23828125 192.8125 C-139.52860116 177.89922461 -135.18092793 168.31396724 -125.3359375 157.10546875 C-120.13828362 152.03834955 -113.62054959 148.83431864 -107.25830078 145.46264648 C-106.49630371 145.05731689 -105.73430664 144.6519873 -104.94921875 144.234375 C-104.26174561 143.87569336 -103.57427246 143.51701172 -102.8659668 143.14746094 C-98.21629291 140.28818222 -97.17443723 137.15819913 -95.5625 132 C-95.12147408 130.64180352 -94.6800651 129.28373138 -94.23828125 127.92578125 C-93.49516016 125.59643647 -92.78715815 123.26667151 -92.10546875 120.91796875 C-89.38833109 112.24546087 -84.3652875 105.80037311 -76.6875 100.875 C-68.92483799 99.0330124 -61.81227591 99.6574646 -54.1015625 101.5234375 C-52.95252441 101.79849121 -51.80348633 102.07354492 -50.61962891 102.35693359 C-49.75515137 102.56914551 -48.89067383 102.78135742 -48 103 C-47.6690332 102.35788574 -47.33806641 101.71577148 -46.99707031 101.05419922 C-41.08625056 89.60071469 -35.1431759 78.17198142 -28.9375 66.875 C-27.46942338 64.18745678 -26.00273959 61.49915875 -24.53662109 58.81054688 C-23.46544233 56.85131429 -22.389907 54.89445998 -21.31103516 52.93945312 C-19.60756459 49.84328352 -17.92692008 46.73561324 -16.25 43.625 C-15.4609729 42.20743408 -15.4609729 42.20743408 -14.65600586 40.76123047 C-11.67099238 35.16840568 -10.37555669 31.34850702 -11 25 C-12.32 25.33 -13.64 25.66 -15 26 C-15.99 24.02 -15.99 24.02 -17 22 C-15.68 20.68 -14.36 19.36 -13 18 C-12.34 18.33 -11.68 18.66 -11 19 C-11 19.99 -11 20.98 -11 22 C-10.01 22 -9.02 22 -8 22 C-7.67 20.35 -7.34 18.7 -7 17 C-8.65 16.67 -10.3 16.34 -12 16 C-11.67 14.35 -11.34 12.7 -11 11 C-10.01 10.67 -9.02 10.34 -8 10 C-7.01 10.495 -7.01 10.495 -6 11 C-6 11.99 -6 12.98 -6 14 C-5.34 14 -4.68 14 -4 14 C-3.34 12.02 -2.68 10.04 -2 8 C-2.928125 8.2784375 -2.928125 8.2784375 -3.875 8.5625 C-6 9 -6 9 -8 8 C-7.67 6.35 -7.34 4.7 -7 3 C-5.35 2.67 -3.7 2.34 -2 2 C-1.67 2.66 -1.34 3.32 -1 4 C-0.67 2.68 -0.34 1.36 0 0 Z M-81 106 C-86.13969775 112.60636088 -89.35304517 119.4186418 -91.5 127.5 C-93.66792091 135.50378881 -95.20887975 140.10875111 -102.4140625 144.55078125 C-105.03599112 146.02017025 -107.69929426 147.38148002 -110.375 148.75 C-122.64137011 155.40643581 -131.57732438 165.73197314 -136 179 C-137.08689118 191.53030261 -135.03032801 200.88407994 -127.4375 211.1875 C-116.27449895 224.17641944 -96.12947624 236.48911736 -78.85351562 238.21435547 C-67.35506873 238.99568516 -57.9282507 238.21434021 -48.6875 230.75 C-41.65454622 224.05666572 -36.53801167 214.7568865 -35.85614014 204.9258728 C-35.76272792 198.61157671 -36.08315478 192.28065428 -36.45922852 185.97875977 C-37.32325368 170.4958616 -37.32325368 170.4958616 -31.69140625 163.6484375 C-30.14003594 162.08651151 -28.57697342 160.53607209 -27 159 C-24.84490581 156.08744009 -22.90626993 153.07935911 -21 150 C-20.38125 149.071875 -19.7625 148.14375 -19.125 147.1875 C-17.09101212 141.42453433 -16.67021201 135.28535855 -18.99609375 129.5390625 C-22.85206354 123.31270901 -28.42762986 118.65832524 -34 114 C-38.29727407 115.43242469 -38.87206944 118.00343744 -40.8671875 121.90429688 C-41.32351562 122.82275391 -41.77984375 123.74121094 -42.25 124.6875 C-42.72179687 125.58662109 -43.19359375 126.48574219 -43.6796875 127.41210938 C-46.3539094 132.70323074 -46.3539094 132.70323074 -46.859375 138.51953125 C-46.07366269 140.96081288 -46.07366269 140.96081288 -45 143 C-44.27520626 150.16476435 -44.68221993 155.15829755 -49 161 C-49.99 161.495 -49.99 161.495 -51 162 C-50.38125 161.278125 -49.7625 160.55625 -49.125 159.8125 C-45.42413939 154.91430213 -44.46003636 151.15558552 -45 145 C-46.38214122 141.64838754 -46.38214122 141.64838754 -48 139 C-50.23669295 140.78517513 -50.23669295 140.78517513 -50.08984375 143.171875 C-50.03957031 144.02265625 -49.98929687 144.8734375 -49.9375 145.75 C-49.85888206 150.29018578 -50.30699489 153.19264794 -53 157 C-56.46198328 159.71344636 -59.59823915 160.91369096 -64 161 C-66.20115503 160.11953799 -68.20820967 159.08639176 -70.265625 157.91015625 C-71.96871274 156.84510748 -71.96871274 156.84510748 -74 157 C-74.86041662 144.11287104 -74.86041662 144.11287104 -71.8125 140.3125 C-69 138 -69 138 -66.55981445 137.24609375 C-62.95522469 135.49141314 -62.07540461 133.27253173 -60.23046875 129.75 C-59.74166985 128.82912598 -59.74166985 128.82912598 -59.24299622 127.88964844 C-58.55954651 126.59555027 -57.8833795 125.29758277 -57.21411133 123.99609375 C-56.18722519 121.99946568 -55.13980413 120.01478818 -54.08789062 118.03125 C-50.56110932 112.28279208 -50.56110932 112.28279208 -49 106 C-58.56010733 102.07790469 -72.74734278 97.54102635 -81 106 Z " fill="#4C330C" transform="translate(178,7)"/>
<path d="M0 0 C1 3 1 3 -0.01293945 5.53344727 C-0.54105225 6.53432373 -1.06916504 7.5352002 -1.61328125 8.56640625 C-2.19706543 9.68297607 -2.78084961 10.7995459 -3.38232422 11.94995117 C-4.02540383 13.15430093 -4.66880258 14.35848033 -5.3125 15.5625 C-5.96177634 16.79432162 -6.61037311 18.02650166 -7.25830078 19.2590332 C-11.25709875 26.84075864 -15.37298868 34.35492376 -19.57788086 41.82421875 C-25.25398596 51.94449779 -30.42862882 62.33346725 -35 73 C-31.37 74.65 -27.74 76.3 -24 78 C-24.99787984 81.22391949 -26.02789713 84.0495949 -27.6875 87 C-29.24394688 90.55759286 -29.00772949 92.30499185 -28 96 C-27.67 96.66 -27.34 97.32 -27 98 C-26.27114873 105.20487406 -26.70847055 110.11447389 -31 116 C-32.75 117.9375 -32.75 117.9375 -34 119 C-34.66 118.67 -35.32 118.34 -36 118 C-35.21625 117.113125 -34.4325 116.22625 -33.625 115.3125 C-29.55738312 110.38065857 -28.5397374 106.44367644 -29 100 C-29.8974827 97.16621868 -29.8974827 97.16621868 -31 95 C-31.53903809 97.38716868 -31.98052605 99.71660274 -32.1484375 102.16015625 C-32.40913228 105.87816036 -32.75818215 108.53651578 -34.5 111.875 C-38.03054898 114.87596664 -41.34664074 116.56282134 -46 117 C-49.28765021 116.11682689 -52.06970856 114.70985294 -55 113 C-55.66 112.67 -56.32 112.34 -57 112 C-58.4080561 107.7758317 -58.78042861 103.38070776 -58 99 C-56.42220833 96.14620903 -54.5754759 93.99978129 -52 92 C-50.34259285 91.62331656 -48.67654729 91.27942455 -47 91 C-46.27438404 89.35814017 -45.62041963 87.68442919 -45 86 C-44.00915981 84.0031624 -42.99414457 82.01821756 -41.9609375 80.04296875 C-41.09082031 78.37524414 -41.09082031 78.37524414 -40.203125 76.67382812 C-39.59984375 75.52333984 -38.9965625 74.37285156 -38.375 73.1875 C-37.76398438 72.01767578 -37.15296875 70.84785156 -36.5234375 69.64257812 C-35.01775034 66.7605988 -33.50986725 63.87979095 -32 61 C-32.69867188 60.86722656 -33.39734375 60.73445313 -34.1171875 60.59765625 C-35.02726562 60.42105469 -35.93734375 60.24445313 -36.875 60.0625 C-37.77992187 59.88847656 -38.68484375 59.71445313 -39.6171875 59.53515625 C-42 59 -42 59 -44 58 C-46.28832811 57.85088589 -48.58199707 57.77860295 -50.875 57.75 C-52.10992187 57.72421875 -53.34484375 57.6984375 -54.6171875 57.671875 C-58.20780505 58.02015661 -59.36739014 58.67350757 -62 61 C-62.66 61 -63.32 61 -64 61 C-64.26941406 61.54527344 -64.53882813 62.09054688 -64.81640625 62.65234375 C-65.65799558 64.3216348 -66.52248016 65.97946838 -67.40234375 67.62890625 C-70.48667786 73.52288822 -72.74600468 79.08931397 -74.375 85.53125 C-76.3603376 93.37333352 -79.25473902 96.90014606 -86 101 C-88.11874399 102.11612407 -90.24424389 103.21948242 -92.375 104.3125 C-104.82190202 110.93166177 -113.51322079 120.53966238 -118 134 C-119.05963205 146.21604381 -117.12064036 155.49377875 -109.9375 165.6875 C-99.1420152 178.51725174 -78.67181069 190.53482145 -61.85351562 192.21435547 C-50.73725189 192.96971547 -41.25841877 192.31373674 -32.1875 185.25 C-25.35879267 178.80600857 -20.50941527 169.35766721 -19.85641479 159.92614746 C-19.76291414 153.61173043 -20.08314757 147.2807751 -20.45922852 140.97875977 C-21.32325368 125.4958616 -21.32325368 125.4958616 -15.69140625 118.6484375 C-14.14003594 117.08651151 -12.57697342 115.53607209 -11 114 C-8.84490581 111.08744009 -6.90626993 108.07935911 -5 105 C-4.38125 104.071875 -3.7625 103.14375 -3.125 102.1875 C-1.09615791 96.43911409 -0.68460428 90.32057211 -2.9609375 84.57421875 C-7.03119278 77.95123112 -13.16002308 73.01422209 -19 68 C-20 67 -20 67 -21 65 C-20.22265625 63.2734375 -20.22265625 63.2734375 -19.0625 61.375 C-18.381875 60.26125 -17.70125 59.1475 -17 58 C-16.67 58.66 -16.34 59.32 -16 60 C-14.99747693 58.18889433 -13.99804504 56.37607722 -13 54.5625 C-12.443125 53.55316406 -11.88625 52.54382813 -11.3125 51.50390625 C-9.92262248 49.32355869 -9.92262248 49.32355869 -10 48 C-11.485 47.505 -11.485 47.505 -13 47 C-13 45.02 -13 43.04 -13 41 C-11.02 41.66 -9.04 42.32 -7 43 C-5.68 40.69 -4.36 38.38 -3 36 C-2.67 36.66 -2.34 37.32 -2 38 C-2.89898328 40.14639517 -3.90923343 42.24645859 -4.96484375 44.3203125 C-5.27700333 44.93897186 -5.5891629 45.55763123 -5.91078186 46.19503784 C-6.9122629 48.1755597 -7.92471079 50.15024082 -8.9375 52.125 C-9.61726468 53.46447444 -10.29631065 54.80431387 -10.97460938 56.14453125 C-12.64141213 59.43396791 -14.31809708 62.7182536 -16 66 C-15.24799316 66.59240479 -14.49598633 67.18480957 -13.72119141 67.79516602 C-12.73296387 68.58592529 -11.74473633 69.37668457 -10.7265625 70.19140625 C-9.74768066 70.96943604 -8.76879883 71.74746582 -7.76025391 72.54907227 C-3.30423371 76.50573127 1.52190699 82.28418848 2.30859375 88.3984375 C2.82392134 100.29782004 -2.07328429 108.13584282 -9.75 116.75 C-10.4757019 117.50978149 -10.4757019 117.50978149 -11.21606445 118.28491211 C-15.31006013 122.72754664 -17.11696524 127.00094889 -16.94091797 133.02001953 C-16.71734815 135.09216661 -16.40514957 137.13184151 -16.0625 139.1875 C-13.90769467 154.67199198 -16.11991484 168.39869087 -25.02734375 181.5234375 C-31.07164325 189.11172637 -39.29634915 194.0738987 -48.99023438 195.23925781 C-69.27051093 196.88783615 -88.34906617 188.9330755 -104.125 176.4375 C-112.63410983 168.9855826 -121.35033315 159.69062541 -122.23828125 147.8125 C-122.52860116 132.89922461 -118.18092793 123.31396724 -108.3359375 112.10546875 C-103.13828362 107.03834955 -96.62054959 103.83431864 -90.25830078 100.46264648 C-89.49630371 100.05731689 -88.73430664 99.6519873 -87.94921875 99.234375 C-87.26174561 98.87569336 -86.57427246 98.51701172 -85.8659668 98.14746094 C-81.21629291 95.28818222 -80.17443723 92.15819913 -78.5625 87 C-78.12147408 85.64180352 -77.6800651 84.28373138 -77.23828125 82.92578125 C-76.49516016 80.59643647 -75.78715815 78.26667151 -75.10546875 75.91796875 C-72.38833109 67.24546087 -67.3652875 60.80037311 -59.6875 55.875 C-51.92483799 54.0330124 -44.81227591 54.6574646 -37.1015625 56.5234375 C-35.95252441 56.79849121 -34.80348633 57.07354492 -33.61962891 57.35693359 C-32.75515137 57.56914551 -31.89067383 57.78135742 -31 58 C-30.5035498 57.03682861 -30.5035498 57.03682861 -29.99707031 56.05419922 C-22.63872235 41.79581746 -15.14765414 27.62393462 -7.41064453 13.56738281 C-4.92916659 9.05107577 -2.46520668 4.52520342 0 0 Z " fill="#0E0B06" transform="translate(161,52)"/>
<path d="M0 0 C1.89510699 -0.08160748 3.79124504 -0.13946459 5.6875 -0.1875 C6.74324219 -0.22230469 7.79898438 -0.25710937 8.88671875 -0.29296875 C13.67780376 0.15788618 16.86900697 2.46061658 20 6 C21.34736973 7.65533995 22.68334336 9.32012773 24 11 C23.67 11.639375 23.34 12.27875 23 12.9375 C21.92728775 14.76794567 21.92728775 14.76794567 22 16 C22.99 16.33 23.98 16.66 25 17 C24.505 19.475 24.505 19.475 24 22 C22.68 22.33 21.36 22.66 20 23 C19.505 21.515 19.505 21.515 19 20 C18.34 21.32 17.68 22.64 17 24 C18.32 24.33 19.64 24.66 21 25 C20.505 27.475 20.505 27.475 20 30 C18.35 30.33 16.7 30.66 15 31 C15 30.01 15 29.02 15 28 C14.34 28 13.68 28 13 28 C12.01 30.475 12.01 30.475 11 33 C12.485 32.505 12.485 32.505 14 32 C14.99 32.66 15.98 33.32 17 34 C15.25 38.875 15.25 38.875 13 40 C12.443125 39.46375 11.88625 38.9275 11.3125 38.375 C9.07446074 36.69489606 9.07446074 36.69489606 6.5 37.5 C3.57335193 39.25598884 1.96502914 41.23440343 0 44 C-0.20625 43.21625 -0.4125 42.4325 -0.625 41.625 C-1.79544214 38.71013083 -1.79544214 38.71013083 -5 37.75 C-5.99 37.5025 -6.98 37.255 -8 37 C-8.66 36.67 -9.32 36.34 -10 36 C-12.475 40.455 -12.475 40.455 -15 45 C-15.33 44.34 -15.66 43.68 -16 43 C-15.00390625 40.8984375 -15.00390625 40.8984375 -13.5625 38.375 C-11.02008402 33.543005 -10.50045839 30.39504942 -11 25 C-12.32 25.33 -13.64 25.66 -15 26 C-15.66 24.68 -16.32 23.36 -17 22 C-15.68 20.68 -14.36 19.36 -13 18 C-12.34 18.33 -11.68 18.66 -11 19 C-11 19.99 -11 20.98 -11 22 C-10.01 22 -9.02 22 -8 22 C-7.67 20.35 -7.34 18.7 -7 17 C-8.65 16.67 -10.3 16.34 -12 16 C-11.67 14.35 -11.34 12.7 -11 11 C-10.01 10.67 -9.02 10.34 -8 10 C-7.34 10.33 -6.68 10.66 -6 11 C-6 11.99 -6 12.98 -6 14 C-5.34 14 -4.68 14 -4 14 C-3.34 12.02 -2.68 10.04 -2 8 C-2.61875 8.185625 -3.2375 8.37125 -3.875 8.5625 C-6 9 -6 9 -8 8 C-7.67 6.35 -7.34 4.7 -7 3 C-5.35 2.67 -3.7 2.34 -2 2 C-1.67 2.66 -1.34 3.32 -1 4 C-0.67 2.68 -0.34 1.36 0 0 Z " fill="#060604" transform="translate(178,7)"/>
<path d="M0 0 C0 3 0 3 -0.9765625 4.8515625 C-2.94801963 8.99011753 -2.49951707 13.53029534 -2 18 C-0.03110488 22.70822746 2.25328678 24.32846438 6.75 26.375 C8.1597736 26.93436178 9.57444734 27.48217104 11 28 C11 28.66 11 29.32 11 30 C14.96 29.34 18.92 28.68 23 28 C23 28.66 23 29.32 23 30 C22.10796875 30.06316406 21.2159375 30.12632812 20.296875 30.19140625 C13.75463081 30.58583153 13.75463081 30.58583153 8.28125 33.65625 C7.08337587 35.75921528 7.08337587 35.75921528 6 39 C5.67 39.33 5.34 39.66 5 40 C4.731875 40.86625 4.46375 41.7325 4.1875 42.625 C2.84368808 46.44425493 1.07970431 49.53382615 -1 53 C-1.33 52.34 -1.66 51.68 -2 51 C-2.33 51.33 -2.66 51.66 -3 52 C-4.485 51.505 -4.485 51.505 -6 51 C-6 50.01 -6 49.02 -6 48 C-6.66 49.32 -7.32 50.64 -8 52 C-7.19175781 52.23847656 -6.38351563 52.47695312 -5.55078125 52.72265625 C-1.21623693 54.28194777 2.74441939 56.29074646 6.8125 58.4375 C7.97555664 59.03014648 7.97555664 59.03014648 9.16210938 59.63476562 C9.89880859 60.02212891 10.63550781 60.40949219 11.39453125 60.80859375 C12.06331299 61.15720459 12.73209473 61.50581543 13.42114258 61.86499023 C15 63 15 63 16 66 C14.5625 68.6875 14.5625 68.6875 13 71 C6.75100197 70.58615907 2.06636813 67.52710695 -3.25 64.5 C-13.03224475 59.038233 -22.93610408 53.92012689 -33 49 C-33.20086443 45.28400809 -33.1519437 44.22791555 -31 41 C-26.21357393 41.5746621 -22.46211213 42.98245643 -18.125 45.0625 C-16.97257812 45.61035156 -15.82015625 46.15820312 -14.6328125 46.72265625 C-13.76398438 47.14417969 -12.89515625 47.56570312 -12 48 C-11.75636719 47.16597656 -11.51273438 46.33195312 -11.26171875 45.47265625 C-9.57451064 40.82891629 -7.1610122 36.72609177 -4.65820312 32.47851562 C-3.01511541 29.54719942 -1.96004712 27.57771861 -2.1953125 24.17578125 C-2.9787564 21.96065493 -2.9787564 21.96065493 -4.0625 19.75 C-5.70092245 14.94396081 -6.09874429 10.3123399 -3.87890625 5.640625 C-2.65876332 3.69116151 -1.39456606 1.82787765 0 0 Z " fill="#1D1509" transform="translate(102,143)"/>
<path d="M0 0 C0.33 0.66 0.66 1.32 1 2 C1.66 2 2.32 2 3 2 C2.34 3.65 1.68 5.3 1 7 C1.33 6.67 1.66 6.34 2 6 C2.99 6.33 3.98 6.66 5 7 C5 7.99 5 8.98 5 10 C5.99 8.35 6.98 6.7 8 5 C9.485 5.495 9.485 5.495 11 6 C9.66511872 9.59391114 8.03977277 12.75490696 6 16 C4.35 15.34 2.7 14.68 1 14 C1.33 15.32 1.66 16.64 2 18 C2.99 17.67 3.98 17.34 5 17 C3.6077541 21.62675657 1.70479016 25.64686231 -0.625 29.875 C-1.25664062 31.02742188 -1.88828125 32.17984375 -2.5390625 33.3671875 C-3.02117187 34.23601562 -3.50328125 35.10484375 -4 36 C-4.33 35.34 -4.66 34.68 -5 34 C-6.25822395 36.80909035 -6.25822395 36.80909035 -5.421875 38.89453125 C-4.83339503 41.83148222 -5.77751942 43.12758406 -7.25 45.6875 C-7.68828125 46.47511719 -8.1265625 47.26273438 -8.578125 48.07421875 C-10 50 -10 50 -13 51 C-15.48046875 50.00390625 -15.48046875 50.00390625 -18.1875 48.5625 C-19.08855469 48.08941406 -19.98960937 47.61632812 -20.91796875 47.12890625 C-21.60503906 46.75636719 -22.29210937 46.38382813 -23 46 C-21.51842483 40.99383548 -19.36224783 36.67890841 -16.875 32.125 C-13.37253948 25.62175388 -9.99138905 19.07417401 -6.73974609 12.44189453 C-4.64561657 8.19667515 -2.38212051 4.09114737 0 0 Z " fill="#4D330C" transform="translate(148,80)"/>
<path d="M0 0 C0.33 0.66 0.66 1.32 1 2 C-0.21484375 4.8203125 -0.21484375 4.8203125 -1.9375 8.125 C-2.50339844 9.22070312 -3.06929687 10.31640625 -3.65234375 11.4453125 C-4.09707031 12.28835937 -4.54179688 13.13140625 -5 14 C-3.68 14 -2.36 14 -1 14 C-1.33 12.68 -1.66 11.36 -2 10 C-1.01 10.66 -0.02 11.32 1 12 C1 12.99 1 13.98 1 15 C2.32 15.66 3.64 16.32 5 17 C5 17.66 5 18.32 5 19 C5.66 19 6.32 19 7 19 C7.77979742 23.75394573 8.40223439 27.72231429 6.9375 32.375 C3.99748897 36.35824075 0.82925969 38.29324057 -3.75 40.0625 C-8.71851642 39.96695161 -13.00493301 37.92670633 -17 35 C-17.765625 33.09375 -17.765625 33.09375 -18 31 C-18.10183594 30.30261719 -18.20367187 29.60523438 -18.30859375 28.88671875 C-18.57451957 24.3498631 -18.21112303 21.60469786 -15.3125 18 C-12.62957769 15.2219386 -10.80155562 14.6335926 -7 14 C-5.88214887 11.88214887 -5.88214887 11.88214887 -5 9 C-3.40176534 5.96131818 -1.70194302 2.98164826 0 0 Z " fill="#060605" transform="translate(121,129)"/>
<path d="M0 0 C0.495 0.99 0.495 0.99 1 2 C0.10101672 4.14639517 -0.90923343 6.24645859 -1.96484375 8.3203125 C-2.43308311 9.24830154 -2.43308311 9.24830154 -2.91078186 10.19503784 C-3.9122629 12.1755597 -4.92471079 14.15024082 -5.9375 16.125 C-6.61726468 17.46447444 -7.29631065 18.80431387 -7.97460938 20.14453125 C-9.64141213 23.43396791 -11.31809708 26.7182536 -13 30 C-12.24799316 30.59240479 -11.49598633 31.18480957 -10.72119141 31.79516602 C-9.73296387 32.58592529 -8.74473633 33.37668457 -7.7265625 34.19140625 C-6.74768066 34.96943604 -5.76879883 35.74746582 -4.76025391 36.54907227 C-0.30423371 40.50573127 4.52190699 46.28418848 5.30859375 52.3984375 C5.82392134 64.29782004 0.92671571 72.13584282 -6.75 80.75 C-7.23380127 81.256521 -7.71760254 81.76304199 -8.21606445 82.28491211 C-12.31006013 86.72754664 -14.11696524 91.00094889 -13.94091797 97.02001953 C-13.71734815 99.09216661 -13.40514957 101.13184151 -13.0625 103.1875 C-10.90769467 118.67199198 -13.11991484 132.39869087 -22.02734375 145.5234375 C-27.66258022 152.59817002 -35.10055688 157.2765163 -44 159 C-49.99865008 159.42344945 -55.99697687 159.23774349 -62 159 C-62 158.34 -62 157.68 -62 157 C-60.11667969 156.96132813 -60.11667969 156.96132813 -58.1953125 156.921875 C-46.56200037 156.57445587 -36.4086652 156.06433899 -27.5234375 147.6796875 C-17.53883404 136.67102214 -16.58649101 124.00719604 -17.19262695 109.89086914 C-17.27265207 108.25304339 -17.36154632 106.61562732 -17.45922852 104.97875977 C-18.32325368 89.4958616 -18.32325368 89.4958616 -12.69140625 82.6484375 C-11.14003594 81.08651151 -9.57697342 79.53607209 -8 78 C-5.84490581 75.08744009 -3.90626993 72.07935911 -2 69 C-1.38125 68.071875 -0.7625 67.14375 -0.125 66.1875 C1.90384209 60.43911409 2.31539572 54.32057211 0.0390625 48.57421875 C-4.03119278 41.95123112 -10.16002308 37.01422209 -16 32 C-17 31 -17 31 -18 29 C-17.22265625 27.2734375 -17.22265625 27.2734375 -16.0625 25.375 C-15.381875 24.26125 -14.70125 23.1475 -14 22 C-13.505 22.99 -13.505 22.99 -13 24 C-11.99747693 22.18889433 -10.99804504 20.37607722 -10 18.5625 C-9.443125 17.55316406 -8.88625 16.54382813 -8.3125 15.50390625 C-6.92262248 13.32355869 -6.92262248 13.32355869 -7 12 C-7.99 11.67 -8.98 11.34 -10 11 C-10 9.02 -10 7.04 -10 5 C-8.02 5.66 -6.04 6.32 -4 7 C-2.68 4.69 -1.36 2.38 0 0 Z " fill="#0E0B06" transform="translate(158,88)"/>
<path d="M0 0 C5.72976937 -0.34378616 10.11251817 -0.40987104 15 3 C17.5 5.875 17.5 5.875 19 9 C17.60544155 13.82353159 14.68929208 17.8922245 12.03393555 22.10668945 C10.16801827 25.08259697 8.41187502 28.06114966 6.8125 31.1875 C4.79947569 34.31115841 3.55869092 35.11032727 0 36 C1.41803849 30.75325757 3.92452238 26.29472755 6.5625 21.5859375 C7.76956678 19.41452933 8.91025851 17.23187439 10 15 C11.32 15 12.64 15 14 15 C14 14.01 14 13.02 14 12 C12.68 12 11.36 12 10 12 C9.34 13.98 8.68 15.96 8 18 C6.68 18 5.36 18 4 18 C3.34 20.31 2.68 22.62 2 25 C-0.375 25.625 -0.375 25.625 -3 26 C-3.66 25.34 -4.32 24.68 -5 24 C-5.66 24.33 -6.32 24.66 -7 25 C-7 24.01 -7 23.02 -7 22 C-7.66 23.32 -8.32 24.64 -9 26 C-9.66 26 -10.32 26 -11 26 C-9.65150163 21.64029169 -7.95092154 17.68658562 -5.875 13.625 C-5.33617187 12.56539062 -4.79734375 11.50578125 -4.2421875 10.4140625 C-3.83226562 9.61742187 -3.42234375 8.82078125 -3 8 C-2.34 8 -1.68 8 -1 8 C-1.60990891 11.55780196 -2.5783681 14.6828589 -4 18 C-3.01 18 -2.02 18 -1 18 C-1.04125 17.071875 -1.0825 16.14375 -1.125 15.1875 C-1 12 -1 12 1 9 C1 8.01 1 7.02 1 6 C0.34 5.67 -0.32 5.34 -1 5 C-0.67 3.35 -0.34 1.7 0 0 Z " fill="#EFB352" transform="translate(180,9)"/>
<path d="M0 0 C0 3 0 3 -0.9765625 4.8515625 C-2.94801963 8.99011753 -2.49951707 13.53029534 -2 18 C-0.03110488 22.70822746 2.25328678 24.32846438 6.75 26.375 C8.1597736 26.93436178 9.57444734 27.48217104 11 28 C11 28.66 11 29.32 11 30 C14.96 29.34 18.92 28.68 23 28 C23 28.66 23 29.32 23 30 C22.10796875 30.06316406 21.2159375 30.12632812 20.296875 30.19140625 C13.75463081 30.58583153 13.75463081 30.58583153 8.28125 33.65625 C7.08337587 35.75921528 7.08337587 35.75921528 6 39 C5.67 39.33 5.34 39.66 5 40 C4.731875 40.86625 4.46375 41.7325 4.1875 42.625 C2.84368808 46.44425493 1.07970431 49.53382615 -1 53 C-1.33 52.34 -1.66 51.68 -2 51 C-2.495 51.495 -2.495 51.495 -3 52 C-3.99 51.67 -4.98 51.34 -6 51 C-6 50.01 -6 49.02 -6 48 C-6.66 48.99 -7.32 49.98 -8 51 C-9.32 50.67 -10.64 50.34 -12 50 C-11.4431849 43.49351248 -8.28227648 38.70427861 -5.0625 33.18945312 C-2.59370872 28.91732478 -2.59370872 28.91732478 -2.16015625 24.11328125 C-2.74613258 22.63880128 -3.38499028 21.18472646 -4.0625 19.75 C-5.70092245 14.94396081 -6.09874429 10.3123399 -3.87890625 5.640625 C-2.65876332 3.69116151 -1.39456606 1.82787765 0 0 Z " fill="#9F7938" transform="translate(102,143)"/>
<path d="M0 0 C-2.10910338 5.27275846 -3.96000193 6.63428662 -9 9 C-11.82188773 11.80668905 -12.92235919 13.33772388 -13.390625 17.33203125 C-13.34421875 18.48058594 -13.2978125 19.62914062 -13.25 20.8125 C-13.21390625 21.97394531 -13.1778125 23.13539063 -13.140625 24.33203125 C-13.09421875 25.21246094 -13.0478125 26.09289062 -13 27 C-11.84757812 27.45439453 -11.84757812 27.45439453 -10.671875 27.91796875 C-8.84063938 28.65956563 -7.03303163 29.46150763 -5.25 30.3125 C-0.58463418 31.29940431 2.77564176 30.05823348 7 28 C9.97254461 25.5848075 10.19650095 23.27336333 10.625 19.625 C10.68816406 18.84511719 10.75132813 18.06523437 10.81640625 17.26171875 C11.04258891 14.47534087 11.50638862 11.75012055 12 9 C15.11673962 11.84571878 15.8949384 13.92837169 16.3125 18.1875 C15.80486635 24.38063055 13.47896216 28.34497091 9.375 32.9375 C4.86440788 35.69397296 1.26462138 36.50947949 -4 36 C-9.01295671 34.49180385 -13.59942302 32.28552419 -16.625 27.875 C-19.14487509 22.32886345 -19.07772543 16.13303367 -17.1171875 10.43359375 C-13.49521036 3.15365956 -8.50710912 -0.82996187 0 0 Z " fill="#F5B954" transform="translate(117,137)"/>
<path d="M0 0 C1.29585916 0.42492126 2.5866044 0.86545882 3.875 1.3125 C4.59429687 1.55613281 5.31359375 1.79976562 6.0546875 2.05078125 C8 3 8 3 10 6 C10.3125 8.5 10.3125 8.5 10 11 C8.625 12.6875 8.625 12.6875 7 14 C2.49187425 18.50812575 -0.32970527 23.27591076 -3 29 C-3.99 28.67 -4.98 28.34 -6 28 C-5.34 26.02 -4.68 24.04 -4 22 C-4.33 22.33 -4.66 22.66 -5 23 C-5.66 22.67 -6.32 22.34 -7 22 C-7.99 23.32 -8.98 24.64 -10 26 C-10.66 25.67 -11.32 25.34 -12 25 C-12 25.66 -12 26.32 -12 27 C-11.34 27.33 -10.68 27.66 -10 28 C-11.375 30.5 -11.375 30.5 -13 33 C-13.66 33 -14.32 33 -15 33 C-16.6446674 35.46326712 -16.6446674 35.46326712 -18 38 C-18.33 37.34 -18.66 36.68 -19 36 C-18.10717773 33.85205078 -18.10717773 33.85205078 -16.68359375 31.1953125 C-16.16901611 30.22416504 -15.65443848 29.25301758 -15.12426758 28.25244141 C-14.56763428 27.22038574 -14.01100098 26.18833008 -13.4375 25.125 C-12.32473794 23.03166598 -11.21275121 20.93791962 -10.1015625 18.84375 C-9.5643457 17.83570312 -9.02712891 16.82765625 -8.47363281 15.7890625 C-6.22738613 11.53771689 -4.09863751 7.23437885 -1.98828125 2.9140625 C-1 1 -1 1 0 0 Z " fill="#54380D" transform="translate(168,42)"/>
<path d="M0 0 C1.89510699 -0.08160748 3.79124504 -0.13946459 5.6875 -0.1875 C6.74324219 -0.22230469 7.79898438 -0.25710937 8.88671875 -0.29296875 C13.67780376 0.15788618 16.86900697 2.46061658 20 6 C21.34736973 7.65533995 22.68334336 9.32012773 24 11 C23.67 11.639375 23.34 12.27875 23 12.9375 C21.92728775 14.76794567 21.92728775 14.76794567 22 16 C22.99 16.33 23.98 16.66 25 17 C24.505 19.475 24.505 19.475 24 22 C22.68 22.33 21.36 22.66 20 23 C19.67 22.01 19.34 21.02 19 20 C16.03 23.465 16.03 23.465 13 27 C13 22.32114614 16.01517508 19.42116153 18.6640625 15.69140625 C19.10492188 14.80324219 19.54578125 13.91507813 20 13 C19.35497392 10.76675124 19.35497392 10.76675124 18 9 C17.63215869 7.6757713 17.28797019 6.34386088 17 5 C16.195625 4.855625 15.39125 4.71125 14.5625 4.5625 C12 4 12 4 11 3 C9.48530552 2.76807135 7.96245438 2.58784762 6.4375 2.4375 C5.19806641 2.31181641 5.19806641 2.31181641 3.93359375 2.18359375 C3.29550781 2.12300781 2.65742188 2.06242188 2 2 C1.67 3.65 1.34 5.3 1 7 C1.99 7.33 2.98 7.66 4 8 C3.7834375 8.8353125 3.7834375 8.8353125 3.5625 9.6875 C3.17422214 11.28375343 2.82217916 12.88910419 2.5 14.5 C2.06237996 16.68810019 1.55985951 18.8405419 1 21 C0.01 21 -0.98 21 -2 21 C-2.33 20.34 -2.66 19.68 -3 19 C-2.22265625 16.8359375 -2.22265625 16.8359375 -1.0625 14.375 C-0.49208984 13.14910156 -0.49208984 13.14910156 0.08984375 11.8984375 C0.39019531 11.27195312 0.69054687 10.64546875 1 10 C0.34 10 -0.32 10 -1 10 C-1.268125 10.886875 -1.53625 11.77375 -1.8125 12.6875 C-2.91710819 15.76877548 -4.22849144 18.26221405 -6 21 C-6.66 20.67 -7.32 20.34 -8 20 C-8 19.01 -8 18.02 -8 17 C-9.32 16.67 -10.64 16.34 -12 16 C-11.67 14.35 -11.34 12.7 -11 11 C-10.01 10.67 -9.02 10.34 -8 10 C-7.34 10.33 -6.68 10.66 -6 11 C-6 11.99 -6 12.98 -6 14 C-5.34 14 -4.68 14 -4 14 C-3.34 12.02 -2.68 10.04 -2 8 C-2.61875 8.185625 -3.2375 8.37125 -3.875 8.5625 C-6 9 -6 9 -8 8 C-7.67 6.35 -7.34 4.7 -7 3 C-5.35 2.67 -3.7 2.34 -2 2 C-1.67 2.66 -1.34 3.32 -1 4 C-0.67 2.68 -0.34 1.36 0 0 Z " fill="#130F08" transform="translate(178,7)"/>
<path d="M0 0 C6.435 2.97 6.435 2.97 13 6 C12 12 12 12 10.875 14 C9.60611428 16.90031022 10.27862066 18.98332276 11 22 C11.33 22.66 11.66 23.32 12 24 C12.72885127 31.20487406 12.29152945 36.11447389 8 42 C6.25 43.9375 6.25 43.9375 5 45 C4.34 44.67 3.68 44.34 3 44 C3.78375 43.113125 4.5675 42.22625 5.375 41.3125 C9.44261688 36.38065857 10.4602626 32.44367644 10 26 C9.1025173 23.16621868 9.1025173 23.16621868 8 21 C6.68 21.33 5.36 21.66 4 22 C4 21.34 4 20.68 4 20 C3.195625 19.731875 2.39125 19.46375 1.5625 19.1875 C0.716875 18.795625 -0.12875 18.40375 -1 18 C-1.33 17.01 -1.66 16.02 -2 15 C-2 15.66 -2 16.32 -2 17 C-3.32 17 -4.64 17 -6 17 C-5.0148275 13.817135 -3.95437086 10.91056688 -2.4375 7.9375 C-0.73334725 4.77113932 -0.73334725 4.77113932 0 0 Z " fill="#432D0B" transform="translate(122,126)"/>
<path d="M0 0 C1.32 0 2.64 0 4 0 C4 0.99 4 1.98 4 3 C2.68 3 1.36 3 0 3 C-0.226875 3.99 -0.45375 4.98 -0.6875 6 C-1.76061341 9.80188752 -3.59503109 12.72383407 -5.7578125 16 C-7.54511811 18.87767445 -8.75482538 21.8542957 -10 25 C-13.3 23.35 -16.6 21.7 -20 20 C-20.32613618 15.32538149 -19.70582788 12.83325617 -17 9 C-16.67 9.99 -16.34 10.98 -16 12 C-15.34 11.34 -14.68 10.68 -14 10 C-13.67 11.32 -13.34 12.64 -13 14 C-11.06890419 14.04289755 -11.06890419 14.04289755 -9 13 C-7.20728609 9.51202512 -7.20728609 9.51202512 -6 6 C-4.68 6 -3.36 6 -2 6 C-1.34 4.02 -0.68 2.04 0 0 Z " fill="#A17A39" transform="translate(190,21)"/>
<path d="M0 0 C2.97 1.32 5.94 2.64 9 4 C7.31326082 8.49797113 5.18326108 12.72886302 3 17 C2.01 16.67 1.02 16.34 0 16 C0.66 14.02 1.32 12.04 2 10 C1.67 10.33 1.34 10.66 1 11 C0.34 10.67 -0.32 10.34 -1 10 C-1.99 11.32 -2.98 12.64 -4 14 C-4.66 13.67 -5.32 13.34 -6 13 C-6 13.66 -6 14.32 -6 15 C-5.34 15.33 -4.68 15.66 -4 16 C-5.375 18.5 -5.375 18.5 -7 21 C-7.66 21 -8.32 21 -9 21 C-10.6446674 23.46326712 -10.6446674 23.46326712 -12 26 C-12.33 25.34 -12.66 24.68 -13 24 C-12.02783203 21.67749023 -12.02783203 21.67749023 -10.5078125 18.80859375 C-9.96769531 17.78185547 -9.42757812 16.75511719 -8.87109375 15.69726562 C-8.29488281 14.62154297 -7.71867188 13.54582031 -7.125 12.4375 C-6.55652344 11.35791016 -5.98804688 10.27832031 -5.40234375 9.16601562 C-1.17135347 1.17135347 -1.17135347 1.17135347 0 0 Z " fill="#50350C" transform="translate(162,54)"/>
<path d="M0 0 C0.33 0.66 0.66 1.32 1 2 C0.05099799 4.28961028 -0.9566182 6.4482331 -2.078125 8.65234375 C-2.5689859 9.6362484 -2.5689859 9.6362484 -3.06976318 10.64002991 C-3.76546973 12.02978025 -4.46515366 13.41754545 -5.16845703 14.8034668 C-6.24137779 16.9204872 -7.29929676 19.04450524 -8.35546875 21.16992188 C-9.0329662 22.51867557 -9.71132411 23.86699746 -10.390625 25.21484375 C-10.70638489 25.84929916 -11.02214478 26.48375458 -11.34747314 27.13743591 C-12.90791494 30.19306364 -14.35855323 32.76995098 -17 35 C-17.99 34.34 -18.98 33.68 -20 33 C-21.32 35.31 -22.64 37.62 -24 40 C-25 38 -25 38 -25 35 C-26.32 35.99 -27.64 36.98 -29 38 C-27.94124926 34.59687262 -26.99097846 31.98646769 -25 29 C-25.66 29 -26.32 29 -27 29 C-25.7508258 25.54074837 -24.32472205 22.85306797 -22 20 C-21.34 20.33 -20.68 20.66 -20 21 C-20.66 23.31 -21.32 25.62 -22 28 C-20.02 28.99 -18.04 29.98 -16 31 C-14.17421297 27.46503234 -12.36679166 23.92098088 -10.5625 20.375 C-10.04623047 19.37597656 -9.52996094 18.37695312 -8.99804688 17.34765625 C-8.50498047 16.37441406 -8.01191406 15.40117188 -7.50390625 14.3984375 C-7.04830322 13.50817871 -6.5927002 12.61791992 -6.12329102 11.70068359 C-4.91461782 8.79471904 -4.40158202 6.11276014 -4 3 C-3.34 3 -2.68 3 -2 3 C-1.34 2.01 -0.68 1.02 0 0 Z " fill="#241908" transform="translate(176,53)"/>
<path d="M0 0 C1.77260631 0.45142775 3.5430368 0.91140523 5.3125 1.375 C6.79169922 1.75785156 6.79169922 1.75785156 8.30078125 2.1484375 C11 3 11 3 14 5 C15.98799818 5.70164642 17.98698517 6.37372872 20 7 C19.34 8.98 18.68 10.96 18 13 C14.27792613 13 12.53604411 11.82035432 9.3125 10 C7.82169922 9.1646875 7.82169922 9.1646875 6.30078125 8.3125 C5.54152344 7.879375 4.78226562 7.44625 4 7 C4 6.34 4 5.68 4 5 C1.525 4.01 1.525 4.01 -1 3 C-0.67 2.01 -0.34 1.02 0 0 Z " fill="#5E3E0E" transform="translate(98,200)"/>
<path d="M0 0 C1.32 0.66 2.64 1.32 4 2 C3.855625 2.556875 3.71125 3.11375 3.5625 3.6875 C3.17422214 5.28375343 2.82217916 6.88910419 2.5 8.5 C2.06237996 10.68810019 1.55985951 12.8405419 1 15 C0.01 15 -0.98 15 -2 15 C-2.33 14.34 -2.66 13.68 -3 13 C-2.22265625 10.8359375 -2.22265625 10.8359375 -1.0625 8.375 C-0.68222656 7.55773437 -0.30195313 6.74046875 0.08984375 5.8984375 C0.39019531 5.27195312 0.69054687 4.64546875 1 4 C0.34 4 -0.32 4 -1 4 C-1.268125 4.886875 -1.53625 5.77375 -1.8125 6.6875 C-2.91710819 9.76877548 -4.22849144 12.26221405 -6 15 C-6.66 14.67 -7.32 14.34 -8 14 C-8 13.01 -8 12.02 -8 11 C-9.32 10.67 -10.64 10.34 -12 10 C-11.67 8.35 -11.34 6.7 -11 5 C-10.01 4.67 -9.02 4.34 -8 4 C-7.34 4.33 -6.68 4.66 -6 5 C-6 5.99 -6 6.98 -6 8 C-5.34 8 -4.68 8 -4 8 C-3.71125 7.195625 -3.4225 6.39125 -3.125 5.5625 C-2 3 -2 3 0 2 C0 1.34 0 0.68 0 0 Z " fill="#080705" transform="translate(178,13)"/>
<path d="M0 0 C3.11673962 2.84571878 3.8949384 4.92837169 4.3125 9.1875 C3.83904713 14.96362502 1.59509454 19.06655207 -2.0625 23.5 C-4 25 -4 25 -7 25 C-5.34578147 19.4011065 -5.34578147 19.4011065 -3.4375 17.1875 C-1.51464438 14.26141535 -1.46246133 11.70487964 -1.18359375 8.26171875 C-0.95741109 5.47534087 -0.49361138 2.75012055 0 0 Z " fill="#E8AF50" transform="translate(129,146)"/>
<path d="M0 0 C4.23429756 1.31061591 8.07407404 2.94356259 12 5 C12 5.99 12 6.98 12 8 C12.99 8.33 13.98 8.66 15 9 C15 9.99 15 10.98 15 12 C8.69403048 10.89061647 3.62470514 9.06802099 -2 6 C-1.34 4.02 -0.68 2.04 0 0 Z " fill="#65430E" transform="translate(72,185)"/>
<path d="M0 0 C0 3 0 3 -0.9765625 4.8515625 C-2.94801963 8.99011753 -2.49951707 13.53029534 -2 18 C-0.03110488 22.70822746 2.25328678 24.32846438 6.75 26.375 C8.1597736 26.93436178 9.57444734 27.48217104 11 28 C11 28.66 11 29.32 11 30 C14.96 29.34 18.92 28.68 23 28 C23 28.66 23 29.32 23 30 C15.02575442 31.80397198 8.27360306 33.21494396 1 28.8125 C-3.74336691 24.51382373 -5.12193028 18.58595851 -5.5625 12.375 C-5.35791848 7.38498998 -2.96199038 3.88232311 0 0 Z " fill="#312513" transform="translate(102,143)"/>
<path d="M0 0 C1 3 1 3 0.00292969 5.50170898 C-0.51881836 6.48985596 -1.04056641 7.47800293 -1.578125 8.49609375 C-2.15739746 9.60364014 -2.73666992 10.71118652 -3.33349609 11.85229492 C-3.97199487 13.04754276 -4.61083636 14.24260757 -5.25 15.4375 C-5.89082071 16.65239011 -6.53095349 17.86764333 -7.17041016 19.08325195 C-12.64641952 29.4614188 -18.27664545 39.75636339 -24 50 C-24.66 49.67 -25.32 49.34 -26 49 C-8.96175077 15.70460652 -8.96175077 15.70460652 0 0 Z " fill="#070504" transform="translate(161,52)"/>
<path d="M0 0 C0.33 0.66 0.66 1.32 1 2 C0.22265625 3.9453125 0.22265625 3.9453125 -0.9375 6.125 C-1.31777344 6.84945312 -1.69804688 7.57390625 -2.08984375 8.3203125 C-2.39019531 8.87460938 -2.69054687 9.42890625 -3 10 C0.40451771 8.86516076 0.6005564 8.44722063 2.1875 5.4375 C2.785625 4.303125 3.38375 3.16875 4 2 C5.43712354 4.87424709 5.08264096 6.69698314 4.25 9.75 C2.82571081 13.45315189 1.03960296 16.60066174 -1 20 C-1.33 19.34 -1.66 18.68 -2 18 C-2.33 18.33 -2.66 18.66 -3 19 C-3.99 18.67 -4.98 18.34 -6 18 C-5.814375 17.21625 -5.62875 16.4325 -5.4375 15.625 C-4.74037734 13.02910225 -4.74037734 13.02910225 -6 11 C-4.78515625 8.3984375 -4.78515625 8.3984375 -3.0625 5.375 C-2.21365234 3.87066406 -2.21365234 3.87066406 -1.34765625 2.3359375 C-0.90292969 1.56507813 -0.45820312 0.79421875 0 0 Z " fill="#725629" transform="translate(102,176)"/>
<path d="M0 0 C3.17614274 0.48123375 5.36329414 1.18863349 8.25 2.6875 C13.10329845 4.38615446 16.21347099 3.50867921 21 2 C20.67 3.98 20.34 5.96 20 8 C11.88632786 9.74357635 7.00991347 8.31035105 0 4 C0 2.68 0 1.36 0 0 Z " fill="#DFA74C" transform="translate(103,164)"/>
<path d="M0 0 C2.475 0.495 2.475 0.495 5 1 C5 1.66 5 2.32 5 3 C5.78632812 3.22429687 6.57265625 3.44859375 7.3828125 3.6796875 C12.12315644 5.40996423 16.43668806 7.73873891 20.875 10.125 C21.75414063 10.59292969 22.63328125 11.06085938 23.5390625 11.54296875 C25.69494271 12.6912093 27.84846777 13.84363903 30 15 C29.01 15.33 28.02 15.66 27 16 C25.32470102 15.01453001 23.66026356 14.01059521 22 13 C19.0340135 11.88837817 16.02735701 10.92997241 13 10 C12.67 10.66 12.34 11.32 12 12 C11.67 11.01 11.34 10.02 11 9 C9.13977928 7.76722873 9.13977928 7.76722873 6.9375 6.8125 C6.20402344 6.46832031 5.47054687 6.12414062 4.71484375 5.76953125 C4.14894531 5.51558594 3.58304687 5.26164063 3 5 C2.67 5.66 2.34 6.32 2 7 C0.5393715 4.35261084 0 3.10551666 0 0 Z " fill="#120D07" transform="translate(85,190)"/>
<path d="M0 0 C6.87433155 0 6.87433155 0 9.64453125 2.4609375 C13.5103489 7.91987308 14.06804418 13.4849305 13 20 C11.5261907 23.94208215 9.22110731 27.26205879 6 30 C5.34 29.67 4.68 29.34 4 29 C4.78375 28.113125 5.5675 27.22625 6.375 26.3125 C10.44261688 21.38065857 11.4602626 17.44367644 11 11 C10.1025173 8.16621868 10.1025173 8.16621868 9 6 C7.68 6.33 6.36 6.66 5 7 C5 6.34 5 5.68 5 5 C2.525 4.01 2.525 4.01 0 3 C0 2.01 0 1.02 0 0 Z " fill="#33240E" transform="translate(121,141)"/>
<path d="M0 0 C-2.10642325 5.26605812 -3.93842975 6.67167769 -9 9 C-11.81356892 11.56197123 -11.81356892 11.56197123 -14 14 C-14.6875 12.25 -14.6875 12.25 -15 10 C-13.5625 7.75 -13.5625 7.75 -12 6 C-12.66 5.67 -13.32 5.34 -14 5 C-5.92255125 -0.74031891 -5.92255125 -0.74031891 0 0 Z " fill="#AF833D" transform="translate(117,137)"/>
<path d="M0 0 C3 3 3 3 3.375 5.5 C2.93450626 8.43662494 2.26639668 9.16944883 0 11 C-0.66 11.66 -1.32 12.32 -2 13 C-3.75 13.8125 -3.75 13.8125 -6 14 C-9.1875 12.8125 -9.1875 12.8125 -12 11 C-12.875 8.8125 -12.875 8.8125 -13 7 C-9.62537285 7.54723683 -7.91765 8.0549 -5 10 C-3.35 6.7 -1.7 3.4 0 0 Z " fill="#35240A" transform="translate(175,45)"/>
<path d="M0 0 C0.33 0.66 0.66 1.32 1 2 C0.328125 3.91015625 0.328125 3.91015625 -0.75 6.0625 C-1.09546875 6.77535156 -1.4409375 7.48820312 -1.796875 8.22265625 C-3 10 -3 10 -6 11 C-8.0078125 10.36328125 -8.0078125 10.36328125 -10.125 9.3125 C-10.82882813 8.97863281 -11.53265625 8.64476563 -12.2578125 8.30078125 C-14 7 -14 7 -14.7421875 4.85546875 C-14.82726562 4.24316406 -14.91234375 3.63085938 -15 3 C-10.125 3.875 -10.125 3.875 -9 5 C-8.5875 4.34 -8.175 3.68 -7.75 3 C-7.1725 2.34 -6.595 1.68 -6 1 C-4.68 1 -3.36 1 -2 1 C-1.34 0.67 -0.68 0.34 0 0 Z " fill="#2B1D09" transform="translate(152,97)"/>
<path d="M0 0 C0.33 0.66 0.66 1.32 1 2 C0.22265625 3.9453125 0.22265625 3.9453125 -0.9375 6.125 C-1.31777344 6.84945312 -1.69804687 7.57390625 -2.08984375 8.3203125 C-2.54037109 9.15175781 -2.54037109 9.15175781 -3 10 C-1.02 10.66 0.96 11.32 3 12 C2.67 12.99 2.34 13.98 2 15 C2.66 15.33 3.32 15.66 4 16 C3.01 16.99 2.02 17.98 1 19 C-1.64 17.68 -4.28 16.36 -7 15 C-5.45454854 9.52067211 -2.84456788 4.88570819 0 0 Z " fill="#442D0B" transform="translate(132,111)"/>
<path d="M0 0 C0.33 0.66 0.66 1.32 1 2 C0.05099799 4.28961028 -0.9566182 6.4482331 -2.078125 8.65234375 C-2.4053656 9.30828018 -2.7326062 9.96421661 -3.06976318 10.64002991 C-3.76546973 12.02978025 -4.46515366 13.41754545 -5.16845703 14.8034668 C-6.24137779 16.9204872 -7.29929676 19.04450524 -8.35546875 21.16992188 C-9.0329662 22.51867557 -9.71132411 23.86699746 -10.390625 25.21484375 C-10.70638489 25.84929916 -11.02214478 26.48375458 -11.34747314 27.13743591 C-12.90791494 30.19306364 -14.35855323 32.76995098 -17 35 C-16.3219059 31.68902357 -15.08948701 28.99964991 -13.53125 26.0078125 C-13.04269531 25.05519531 -12.55414063 24.10257813 -12.05078125 23.12109375 C-11.02011507 21.12985707 -9.986278 19.14025833 -8.94921875 17.15234375 C-8.46066406 16.19714844 -7.97210938 15.24195312 -7.46875 14.2578125 C-6.79489258 12.96061279 -6.79489258 12.96061279 -6.10742188 11.63720703 C-4.89788615 8.75682676 -4.39979565 6.08938136 -4 3 C-3.34 3 -2.68 3 -2 3 C-1.34 2.01 -0.68 1.02 0 0 Z " fill="#040302" transform="translate(176,53)"/>
<path d="M0 0 C1.65 0 3.3 0 5 0 C4.01 0.33 3.02 0.66 2 1 C1.67 3.64 1.34 6.28 1 9 C-5.75 9.125 -5.75 9.125 -8 8 C-7.67 6.35 -7.34 4.7 -7 3 C-5.35 2.67 -3.7 2.34 -2 2 C-1.67 2.66 -1.34 3.32 -1 4 C-0.67 2.68 -0.34 1.36 0 0 Z " fill="#020303" transform="translate(178,7)"/>
<path d="M0 0 C0.66 0 1.32 0 2 0 C1.53413801 2.7175283 0.987525 5.02841528 -0.125 7.5625 C-1.08884279 10.24749062 -0.97354831 11.37141956 0 14 C-0.66 14 -1.32 14 -2 14 C-2.33 14.99 -2.66 15.98 -3 17 C-3.33 16.01 -3.66 15.02 -4 14 C-4.66 15.32 -5.32 16.64 -6 18 C-6.66 18 -7.32 18 -8 18 C-6.65150163 13.64029169 -4.95092154 9.68658562 -2.875 5.625 C-2.33617187 4.56539062 -1.79734375 3.50578125 -1.2421875 2.4140625 C-0.83226562 1.61742188 -0.42234375 0.82078125 0 0 Z " fill="#C59745" transform="translate(177,17)"/>
<path d="M0 0 C0.66 0.99 1.32 1.98 2 3 C3.63495707 4.05104383 5.29883624 5.05988318 7 6 C7.66 5.34 8.32 4.68 9 4 C9.66 4.33 10.32 4.66 11 5 C11 6.98 11 8.96 11 11 C10.37351563 10.71125 9.74703125 10.4225 9.1015625 10.125 C7.87566406 9.568125 7.87566406 9.568125 6.625 9 C5.81289062 8.62875 5.00078125 8.2575 4.1640625 7.875 C2.08001567 6.87504987 2.08001567 6.87504987 0 7 C0 7.66 0 8.32 0 9 C-1.32 9 -2.64 9 -4 9 C-2.94124926 5.59687262 -1.99097846 2.98646769 0 0 Z " fill="#50360D" transform="translate(120,134)"/>
<path d="M0 0 C0.33 0.66 0.66 1.32 1 2 C0.03523618 4.01723344 -0.96838392 6.01612292 -2 8 C-2.68636625 10.23525035 -2.68636625 10.23525035 -3 12 C-3.66 11.67 -4.32 11.34 -5 11 C-5.33 12.32 -5.66 13.64 -6 15 C-6.99 14.67 -7.98 14.34 -9 14 C-8.7215625 13.1028125 -8.7215625 13.1028125 -8.4375 12.1875 C-7.77906313 9.83591238 -7.77906313 9.83591238 -9 7 C-8.01 6.67 -7.02 6.34 -6 6 C-4.45833358 4.62514468 -4.45833358 4.62514468 -3 3 C-2 2 -1 1 0 0 Z " fill="#2F2009" transform="translate(165,60)"/>
<path d="M0 0 C1 2 1 2 1 5 C0 7.1875 0 7.1875 -1 9 C-1.66 8.67 -2.32 8.34 -3 8 C-3 8.66 -3 9.32 -3 10 C-2.34 10.33 -1.68 10.66 -1 11 C-2.375 13.5 -2.375 13.5 -4 16 C-4.66 16 -5.32 16 -6 16 C-7.6446674 18.46326712 -7.6446674 18.46326712 -9 21 C-9.33 20.34 -9.66 19.68 -10 19 C-9.19555664 17.02880859 -9.19555664 17.02880859 -7.91015625 14.6484375 C-7.45576172 13.79765625 -7.00136719 12.946875 -6.53320312 12.0703125 C-5.80520508 10.73613281 -5.80520508 10.73613281 -5.0625 9.375 C-4.58103516 8.4778125 -4.09957031 7.580625 -3.60351562 6.65625 C-2.40941284 4.43356364 -1.20800619 2.21515174 0 0 Z " fill="#55390D" transform="translate(159,59)"/>
<path d="M0 0 C2.31 0 4.62 0 7 0 C7 0.99 7 1.98 7 3 C7.99 2.67 8.98 2.34 10 2 C9.39816251 4.02045442 8.72693904 6.02111039 8 8 C7.01 8.495 7.01 8.495 6 9 C6.33 7.68 6.66 6.36 7 5 C5.824375 5.5259375 5.824375 5.5259375 4.625 6.0625 C3.325625 6.5265625 3.325625 6.5265625 2 7 C1.34 6.67 0.68 6.34 0 6 C0 4.02 0 2.04 0 0 Z " fill="#33220A" transform="translate(124,134)"/>
<path d="M0 0 C3.465 1.485 3.465 1.485 7 3 C7 3.66 7 4.32 7 5 C10.96 4.34 14.92 3.68 19 3 C19 3.66 19 4.32 19 5 C16.79606901 5.41965261 14.58649997 5.80975932 12.375 6.1875 C11.14523438 6.40792969 9.91546875 6.62835938 8.6484375 6.85546875 C4.51133916 7.01935808 2.49056046 6.13192693 -1 4 C-0.67 2.68 -0.34 1.36 0 0 Z " fill="#543F1E" transform="translate(106,168)"/>
<path d="M0 0 C4.75481646 0.57634139 7.97048212 2.55068521 12 5 C11.01 5.99 10.02 6.98 9 8 C4.545 6.02 4.545 6.02 0 4 C0 2.68 0 1.36 0 0 Z " fill="#A47E3B" transform="translate(103,164)"/>
<path d="M0 0 C0.99 0.33 1.98 0.66 3 1 C2.25 8.75 2.25 8.75 0 11 C-1.32 11 -2.64 11 -4 11 C-3.5247412 9.35303396 -3.04468109 7.70745272 -2.5625 6.0625 C-2.29566406 5.14597656 -2.02882812 4.22945312 -1.75390625 3.28515625 C-1 1 -1 1 0 0 Z " fill="#462F0B" transform="translate(162,54)"/>
<path d="M0 0 C0.66 0 1.32 0 2 0 C1.979375 0.94875 1.95875 1.8975 1.9375 2.875 C1.77448174 5.90666283 1.77448174 5.90666283 3 8 C2.01 9.485 2.01 9.485 1 11 C-0.32 10.67 -1.64 10.34 -3 10 C-2.49287967 6.28111761 -1.88391785 3.26545761 0 0 Z " fill="#876730" transform="translate(93,183)"/>
<path d="M0 0 C1.32 0 2.64 0 4 0 C4 0.99 4 1.98 4 3 C2.68 3 1.36 3 0 3 C-0.268125 4.11375 -0.53625 5.2275 -0.8125 6.375 C-2 10 -2 10 -5 12 C-5.66 11.67 -6.32 11.34 -7 11 C-6.67 9.35 -6.34 7.7 -6 6 C-4.68 6 -3.36 6 -2 6 C-1.34 4.02 -0.68 2.04 0 0 Z " fill="#392B15" transform="translate(190,21)"/>
<path d="M0 0 C0.66 0.33 1.32 0.66 2 1 C-2.57894737 8.10526316 -2.57894737 8.10526316 -5 10 C-5.99 10 -6.98 10 -8 10 C-7.04735876 5.80837855 -6.36739592 4.2792209 -2.875 1.625 C-1.92625 1.08875 -0.9775 0.5525 0 0 Z " fill="#F2B553" transform="translate(130,161)"/>
<path d="M0 0 C0.33 0.66 0.66 1.32 1 2 C0.1875 3.69921875 0.1875 3.69921875 -1 5.6875 C-3.28331349 9.964803 -3.16074318 12.35702729 -2 17 C-4.475 16.01 -4.475 16.01 -7 15 C-5.46412283 10.27422409 -3.87228255 5.60269461 -2 1 C-1.34 0.67 -0.68 0.34 0 0 Z " fill="#302009" transform="translate(136,106)"/>
<path d="M0 0 C1.32 0 2.64 0 4 0 C4.65234375 1.734375 4.65234375 1.734375 5 4 C4.00390625 6.140625 4.00390625 6.140625 2.5625 8.25 C2.08941406 8.95640625 1.61632812 9.6628125 1.12890625 10.390625 C0.75636719 10.92171875 0.38382813 11.4528125 0 12 C-0.66 11.67 -1.32 11.34 -2 11 C-1.67 8.69 -1.34 6.38 -1 4 C0.32 4 1.64 4 3 4 C3 3.01 3 2.02 3 1 C2.01 0.67 1.02 0.34 0 0 Z " fill="#E0A84D" transform="translate(191,20)"/>
<path d="M0 0 C0.33 0.66 0.66 1.32 1 2 C0.22265625 3.9453125 0.22265625 3.9453125 -0.9375 6.125 C-1.31777344 6.84945312 -1.69804687 7.57390625 -2.08984375 8.3203125 C-2.54037109 9.15175781 -2.54037109 9.15175781 -3 10 C-3.99 10 -4.98 10 -6 10 C-6.66 10.66 -7.32 11.32 -8 12 C-8.66 11.67 -9.32 11.34 -10 11 C-10 9.02 -10 7.04 -10 5 C-8.02 5.66 -6.04 6.32 -4 7 C-2.68 4.69 -1.36 2.38 0 0 Z " fill="#0F0A04" transform="translate(158,88)"/>
<path d="M0 0 C0.66 0 1.32 0 2 0 C0.55135931 4.8288023 -1.17453739 9.78694365 -4 14 C-4.99 14.33 -5.98 14.66 -7 15 C-5.45454854 9.52067211 -2.84456788 4.88570819 0 0 Z " fill="#39260A" transform="translate(170,60)"/>
<path d="M0 0 C-0.33 1.65 -0.66 3.3 -1 5 C-2.32 5.33 -3.64 5.66 -5 6 C-5.66 4.35 -6.32 2.7 -7 1 C-3.375 -1.125 -3.375 -1.125 0 0 Z " fill="#020304" transform="translate(203,24)"/>
<path d="M0 0 C1 2 1 2 1 5 C0.67 5.99 0.34 6.98 0 8 C-0.99 8 -1.98 8 -3 8 C-3 8.66 -3 9.32 -3 10 C-2.34 10.33 -1.68 10.66 -1 11 C-1.99 11.99 -2.98 12.98 -4 14 C-4.66 13.67 -5.32 13.34 -6 13 C-4.58707905 8.1725201 -2.57025846 4.2837641 0 0 Z " fill="#2E1F09" transform="translate(140,108)"/>
<path d="M0 0 C3.40312738 1.05875074 6.01353231 2.00902154 9 4 C9 4.99 9 5.98 9 7 C5.08788267 5.84414715 2.1254959 4.64465038 -1 2 C-0.67 1.34 -0.34 0.68 0 0 Z " fill="#49300C" transform="translate(88,195)"/>
<path d="M0 0 C0.99 0.33 1.98 0.66 3 1 C2.38461538 6.53846154 2.38461538 6.53846154 0.4375 8.875 C-0.2740625 9.431875 -0.2740625 9.431875 -1 10 C-0.67 8.35 -0.34 6.7 0 5 C-2.12364481 4.77390663 -2.12364481 4.77390663 -3.625 6.5 C-4.07875 6.995 -4.5325 7.49 -5 8 C-3.375 2.25 -3.375 2.25 0 0 Z " fill="#37250A" transform="translate(152,83)"/>
<path d="M0 0 C0.33 0 0.66 0 1 0 C1.22151549 1.79008467 1.42682213 3.58218162 1.625 5.375 C1.74101563 6.37273437 1.85703125 7.37046875 1.9765625 8.3984375 C1.98429687 9.25695312 1.99203125 10.11546875 2 11 C1.34 11.66 0.68 12.32 0 13 C-1.5625 10.6875 -1.5625 10.6875 -3 8 C-2.67 7.01 -2.34 6.02 -2 5 C-1.67 5 -1.34 5 -1 5 C-0.67 3.35 -0.34 1.7 0 0 Z " fill="#DBA54C" transform="translate(102,153)"/>
<path d="M0 0 C0.66 1.32 1.32 2.64 2 4 C3.65 3.67 5.3 3.34 7 3 C6.34 4.65 5.68 6.3 5 8 C2.69 7.01 0.38 6.02 -2 5 C-1.34 3.35 -0.68 1.7 0 0 Z " fill="#18120A" transform="translate(175,31)"/>
<path d="M0 0 C0.66 0.33 1.32 0.66 2 1 C1.75 4.375 1.75 4.375 1 8 C-1.0625 9.4375 -1.0625 9.4375 -3 10 C-3.36923077 3.47692308 -3.36923077 3.47692308 -1.5 1.0625 C-1.005 0.711875 -0.51 0.36125 0 0 Z " fill="#36240A" transform="translate(145,88)"/>
<path d="M0 0 C0.33 0.99 0.66 1.98 1 3 C1.66 2.67 2.32 2.34 3 2 C2.125 6.75 2.125 6.75 1 9 C0.34 9 -0.32 9 -1 9 C-1.66 6.36 -2.32 3.72 -3 1 C-2.01 0.67 -1.02 0.34 0 0 Z " fill="#4C330C" transform="translate(140,115)"/>
<path d="M0 0 C0.33 0.66 0.66 1.32 1 2 C0.22265625 3.9453125 0.22265625 3.9453125 -0.9375 6.125 C-1.31777344 6.84945312 -1.69804687 7.57390625 -2.08984375 8.3203125 C-2.39019531 8.87460938 -2.69054687 9.42890625 -3 10 C-3.99 9.34 -4.98 8.68 -6 8 C-4.52307692 2.33846154 -4.52307692 2.33846154 -1.875 0.625 C-0.946875 0.315625 -0.946875 0.315625 0 0 Z " fill="#54380D" transform="translate(152,97)"/>
<path d="M0 0 C0 3 0 3 -1.4609375 4.82421875 C-2.09257813 5.43910156 -2.72421875 6.05398437 -3.375 6.6875 C-4.00148438 7.31011719 -4.62796875 7.93273437 -5.2734375 8.57421875 C-7 10 -7 10 -9 10 C-7.61811547 6.78956118 -6.07578097 4.95063635 -3.375 2.75 C-2.74335937 2.22921875 -2.11171875 1.7084375 -1.4609375 1.171875 C-0.73777344 0.59179688 -0.73777344 0.59179688 0 0 Z " fill="#E7AE50" transform="translate(60,161)"/>
<path d="M0 0 C0.33 0.66 0.66 1.32 1 2 C0.22265625 3.9453125 0.22265625 3.9453125 -0.9375 6.125 C-1.31777344 6.84945312 -1.69804687 7.57390625 -2.08984375 8.3203125 C-2.54037109 9.15175781 -2.54037109 9.15175781 -3 10 C-2.34 10.33 -1.68 10.66 -1 11 C-1.639375 11.103125 -2.27875 11.20625 -2.9375 11.3125 C-3.9584375 11.6528125 -3.9584375 11.6528125 -5 12 C-5.33 12.99 -5.66 13.98 -6 15 C-6.33 14.34 -6.66 13.68 -7 13 C-5.92325298 10.71741367 -4.80453884 8.5643566 -3.5625 6.375 C-3.22412109 5.76398438 -2.88574219 5.15296875 -2.53710938 4.5234375 C-1.69853808 3.011647 -0.85017423 1.50529601 0 0 Z " fill="#583A0D" transform="translate(132,111)"/>
<path d="M0 0 C0.66 0.33 1.32 0.66 2 1 C1.41196203 4.02419525 0.77321882 7.01758453 0 10 C-0.99 10 -1.98 10 -3 10 C-3.33 9.34 -3.66 8.68 -4 8 C-3.22265625 6.0546875 -3.22265625 6.0546875 -2.0625 3.875 C-1.49208984 2.78832031 -1.49208984 2.78832031 -0.91015625 1.6796875 C-0.60980469 1.12539063 -0.30945313 0.57109375 0 0 Z " fill="#3B2D16" transform="translate(179,18)"/>
<path d="M0 0 C0.33 0.66 0.66 1.32 1 2 C-0.21484375 4.6015625 -0.21484375 4.6015625 -1.9375 7.625 C-2.78634766 9.12933594 -2.78634766 9.12933594 -3.65234375 10.6640625 C-4.09707031 11.43492187 -4.54179688 12.20578125 -5 13 C-6 11 -6 11 -5.29296875 8.65234375 C-4.92816406 7.75644531 -4.56335938 6.86054688 -4.1875 5.9375 C-3.83042969 5.03902344 -3.47335938 4.14054688 -3.10546875 3.21484375 C-2 1 -2 1 0 0 Z " fill="#85642F" transform="translate(106,183)"/>
<path d="M0 0 C0.99 0.33 1.98 0.66 3 1 C1.25 6.75 1.25 6.75 -1 9 C-1.66 8.67 -2.32 8.34 -3 8 C-1.125 2.25 -1.125 2.25 0 0 Z " fill="#BF9143" transform="translate(102,178)"/>
<path d="M0 0 C1.15941038 3.47823115 0.70820884 5.45895578 0 9 C-2.475 8.01 -2.475 8.01 -5 7 C-4.6875 5.0625 -4.6875 5.0625 -4 3 C-3.01 2.67 -2.02 2.34 -1 2 C-0.67 1.34 -0.34 0.68 0 0 Z " fill="#322209" transform="translate(171,43)"/>
<path d="M0 0 C2.475 0.99 2.475 0.99 5 2 C4.67 3.65 4.34 5.3 4 7 C2.02 6.01 0.04 5.02 -2 4 C-1.34 2.68 -0.68 1.36 0 0 Z " fill="#83622E" transform="translate(176,39)"/>
<path d="M0 0 C3.82097239 0.53069061 6.06171403 1.49701566 9 4 C8.34 4.66 7.68 5.32 7 6 C3.535 4.02 3.535 4.02 0 2 C0 1.34 0 0.68 0 0 Z " fill="#090705" transform="translate(82,196)"/>
<path d="M0 0 C0.6875 1.625 0.6875 1.625 1 4 C-0.4375 7.25 -0.4375 7.25 -2 10 C-2.66 10 -3.32 10 -4 10 C-3.71872579 8.51882199 -3.42466268 7.04006751 -3.125 5.5625 C-2.96257812 4.73878906 -2.80015625 3.91507813 -2.6328125 3.06640625 C-2.42398438 2.38449219 -2.21515625 1.70257813 -2 1 C-1.34 0.67 -0.68 0.34 0 0 Z " fill="#947035" transform="translate(184,31)"/>
<path d="M0 0 C-0.33 1.32 -0.66 2.64 -1 4 C-2.98 4 -4.96 4 -7 4 C-7 3.01 -7 2.02 -7 1 C-4 0 -4 0 0 0 Z " fill="#F4B854" transform="translate(115,139)"/>
<path d="M0 0 C0.66 0 1.32 0 2 0 C1.43454163 3.95820859 0.19097652 6.6659053 -2 10 C-2.6875 8.375 -2.6875 8.375 -3 6 C-1.5625 2.75 -1.5625 2.75 0 0 Z " fill="#DCA94E" transform="translate(177,17)"/>
<path d="M0 0 C0.99 0.33 1.98 0.66 3 1 C2.1875 3.9375 2.1875 3.9375 1 7 C0.01 7.33 -0.98 7.66 -2 8 C-1.125 2.25 -1.125 2.25 0 0 Z " fill="#39260A" transform="translate(153,73)"/>
<path d="M0 0 C3 1 3 1 6 3 C3.29120665 4.35439668 0.99066732 4.06501451 -2 4 C-1.34 2.68 -0.68 1.36 0 0 Z " fill="#EBB251" transform="translate(115,169)"/>
<path d="M0 0 C0.99 0.33 1.98 0.66 3 1 C2.38125 1.2475 1.7625 1.495 1.125 1.75 C-1.35068687 3.20628639 -1.95125002 4.37812506 -3 7 C-3.66 6.34 -4.32 5.68 -5 5 C-3.35 3.35 -1.7 1.7 0 0 Z " fill="#1A140A" transform="translate(98,110)"/>
<path d="M0 0 C2.475 0.495 2.475 0.495 5 1 C5 1.99 5 2.98 5 4 C4.01 4.33 3.02 4.66 2 5 C1.34 4.67 0.68 4.34 0 4 C0 2.68 0 1.36 0 0 Z " fill="#977536" transform="translate(109,167)"/>
<path d="M0 0 C0.6875 1.6875 0.6875 1.6875 1 4 C-0.4375 6.75 -0.4375 6.75 -2 9 C-2.6875 7.3125 -2.6875 7.3125 -3 5 C-1.5625 2.25 -1.5625 2.25 0 0 Z " fill="#9B7637" transform="translate(110,173)"/>
<path d="M0 0 C0.99 0.33 1.98 0.66 3 1 C1.68 3.31 0.36 5.62 -1 8 C-1.93065133 5.39417629 -2.14917407 4.35801776 -1.0625 1.75 C-0.711875 1.1725 -0.36125 0.595 0 0 Z " fill="#402B0B" transform="translate(161,77)"/>
<path d="M0 0 C0.33 0.66 0.66 1.32 1 2 C0.06553465 4.03144641 -0.93224776 6.03533587 -2 8 C-2.99 7.67 -3.98 7.34 -5 7 C-3.70700306 4.11562221 -2.34058637 2.12780579 0 0 Z " fill="#130D05" transform="translate(176,53)"/>
<path d="M0 0 C2.475 0.99 2.475 0.99 5 2 C5 2.66 5 3.32 5 4 C1.25 5.125 1.25 5.125 -1 4 C-0.67 2.68 -0.34 1.36 0 0 Z " fill="#4B391B" transform="translate(106,168)"/>
<path d="M0 0 C0.66 0.33 1.32 0.66 2 1 C1.67 1.66 1.34 2.32 1 3 C1.66 3.33 2.32 3.66 3 4 C2.01 4.99 1.02 5.98 0 7 C-0.66 6.67 -1.32 6.34 -2 6 C-1.34 4.02 -0.68 2.04 0 0 Z " fill="#573A0D" transform="translate(133,123)"/>
<path d="M0 0 C1.98 0.99 1.98 0.99 4 2 C3.67 3.65 3.34 5.3 3 7 C2.01 6.67 1.02 6.34 0 6 C0 4.02 0 2.04 0 0 Z " fill="#2A1D08" transform="translate(148,93)"/>
</svg>
